# AST/ASF file generated using VICON BodyLanguage
# -----------------------------------------------
:version 1.10
:name VICON
:units
  mass 1.0
  length 0.45
  angle deg
:documentation
   .ast/.asf automatically generated from VICON data using
   VICON BodyBuilder and BodyLanguage model FoxedUp or BRILLIANT.MOD
:root
   order TX TY TZ RX RY RZ
   axis XYZ
   position 0 0 0  
   orientation 0 0 0 
:bonedata
  begin
     id 1 
     name lhipjoint
     direction 0.573633 -0.743009 0.344793 
     length 2.46257 
     axis 0 0 0  XYZ
  end
  begin
     id 2 
     name lfemur
     direction 0.34202 -0.939693 0  
     length 7.3842  
     axis 0 0 20  XYZ
    dof rx ry rz
    limits (-160.0 20.0)
           (-70.0 70.0)
           (-60.0 70.0)
  end
  begin
     id 3 
     name ltibia
     direction 0.34202 -0.939693 0   
     length 7.50407   
     axis 0 0 20   XYZ
    dof rx
    limits (-10.0 170.0)
  end
  begin
     id 4 
     name lfoot
     direction 0.110749 -0.304281 0.946123   
     length 1.95925   
     axis -90 7.62852e-016 20   XYZ
    dof rx rz
    limits (-45.0 90.0)
           (-70.0 20.0)
  end
  begin
     id 5 
     name ltoes
     direction 1.53554e-011 -4.21843e-011 1   
     length 0.978318   
     axis -90 7.62852e-016 20   XYZ
    dof rx
    limits (-90.0 20.0)
  end
  begin
     id 6 
     name rhipjoint
     direction -0.488109 -0.791693 0.367385   
     length 2.31113  
     axis 0 0 0  XYZ 
  end
  begin
     id 7 
     name rfemur
     direction -0.34202 -0.939693 0   
     length 7.40965   
     axis 0 0 -20   XYZ
    dof rx ry rz
    limits (-160.0 20.0)
           (-70.0 70.0)
           (-70.0 60.0)
  end
  begin
     id 8 
     name rtibia
     direction -0.34202 -0.939693 0   
     length 7.55548   
     axis 0 0 -20   XYZ
    dof rx
    limits (-10.0 170.0)
 end
 begin
     id 9 
     name rfoot
     direction -0.127594 -0.350561 0.927808   
     length 2.07199  
     axis -90 -7.62852e-016 -20   XYZ
    dof rx rz
    limits (-45.0 90.0)
           (-20.0 70.0)
  end
  begin
     id 10 
     name rtoes
     direction -1.53542e-011 -4.21909e-011 1   
     length 1.02667   
     axis -90 -7.62852e-016 -20   XYZ
    dof rx
    limits (-90.0 20.0)
  end
  begin
     id 11 
     name lowerback
     direction -0.0103342 0.997298 -0.0727278   
     length 2.02836   
     axis 0 0 0   XYZ
    dof rx ry rz
    limits (-20.0 45.0)
           (-30.0 30.0)
           (-30.0 30.0)
  end
  begin
     id 12 
     name upperback
     direction 0.0171146 0.999786 -0.011606   
     length 2.03179   
     axis 0 0 0   XYZ
    dof rx ry rz
    limits (-20.0 45.0)
           (-30.0 30.0)
           (-30.0 30.0)
  end
  begin
     id 13 
     name thorax
     direction 0.0216927 0.999513 0.0224343   
     length 2.03882   
     axis 0 0 0   XYZ
    dof rx ry rz
    limits (-20.0 45.0)
           (-30.0 30.0)
           (-30.0 30.0)
  end
  begin
     id 14 
     name lowerneck
     direction 0.000989287 0.993907 0.110221   
     length 1.75428   
     axis 0 0 0   XYZ
    dof rx ry rz
    limits (-20.0 45.0)
           (-30.0 30.0)
           (-30.0 30.0)
  end
  begin
     id 15 
     name upperneck
     direction -0.0172474 0.994813 -0.100253   
     length 1.77058   
     axis 0 0 0   XYZ
    dof rx ry rz
    limits (-20.0 45.0)
           (-30.0 30.0)
           (-30.0 30.0)
  end
  begin
     id 16
     name head
     direction -0.00486455 0.99894 -0.0457663  
     length 1.77427  
     axis 0 0 0   XYZ
    dof rx ry rz
    limits (-20.0 45.0)
           (-30.0 30.0)
           (-30.0 30.0)
  end
  begin
     id 17 
     name lclavicle
     direction 0.927314 0.333734 -0.169441  
     length 3.97584  
     axis 0 0 0   XYZ
    dof ry rz
    limits (-20.0 10.0)
           (0.0 20.0)
  end
  begin
     id 18 
     name lhumerus
     direction 1 -4.48965e-011 -3.25313e-028   
     length 4.76468   
     axis 180 -30 -90   XYZ
    dof rx ry rz
    limits (-60.0 90.0)
           (-90.0 90.0)
           (-90.0 90.0)
  end
  begin
     id 19
     name lradius
     direction 1 -4.48969e-011 -2.8465e-028   
     length 3.52712   
     axis -180 -30 -90   XYZ
    dof rx
    limits (-10.0 170.0)
  end
  begin
     id 20
     name lwrist
     direction 1 -4.4896e-011 -7.78665e-028   
     length 1.76356   
     axis 1.91374e-015 90 90   XYZ
    dof ry
    limits (-180.0 0.0)
 end
  begin
     id 21 
     name lhand
     direction 1 -4.48959e-011 -1.55733e-027   
     length 0.859564   
     axis 9.9371e-016 90 90   XYZ
    dof rx rz
    limits (-90.0 90.0)
           (-45.0 45.0)
  end
  begin
     id 22 
     name lfingers
     direction 1 -4.48965e-011 -3.11466e-027   
     length 0.693002   
     axis 1.98742e-015 90 90   XYZ
    dof rx
    limits (0.0 90.0)
  end
  begin
     id 23
     name lthumb
     direction 0.707107 -6.34948e-011 0.707107   
     length 0.995017   
     axis -90 45 2.85299e-015   XYZ
    dof rx rz
    limits (-45.0 45.0)
           (-45.0 45.0)
  end
  begin
     id 24 
     name rclavicle
     direction -0.899388 0.348209 -0.264294   
     length 3.68366  
     axis 0 0 0   XYZ 
    dof ry rz
    limits (-10.0 20.0)
           (-20.0 0.0)
  end
  begin
     id 25 
     name rhumerus
     direction -1 -4.48965e-011 -3.01536e-027  
     length 4.90577   
     axis 180 30 90   XYZ
    dof rx ry rz
    limits (-90.0 60.0)
           (-90.0 90.0)
           (-90.0 90.0)
  end
  begin
     id 26 
     name rradius
     direction -1 -4.48966e-011 3.93291e-027   
     length 3.42692   
     axis -180 30 90   XYZ
    dof rx
    limits (-10.0 170.0)
  end
  begin
     id 27 
     name rwrist
     direction -1 -4.48969e-011 -7.78665e-028   
     length 1.71346   
     axis 1.91374e-015 -90 -90   XYZ
    dof ry
    limits (-180.0 0.0)
  end
  begin
     id 28
     name rhand
     direction -1 -4.48967e-011 -1.55733e-027   
     length 0.740957   
     axis 9.9371e-016 -90 -90   XYZ
    dof rx rz
    limits (-90.0 90.0)
           (-45.0 45.0)
  end
  begin
     id 29
     name rfingers
     direction -1 -4.48949e-011 -3.11466e-027   
     length 0.597378   
     axis 1.98742e-015 -90 -90   XYZ
    dof rx
    limits (0.0 90.0)
  end
  begin
     id 30
     name rthumb
     direction -0.707107 -6.34931e-011 0.707107   
     length 0.857719   
     axis -90 -45 -2.85299e-015   XYZ
    dof rx rz
    limits (-45.0 45.0)
           (-45.0 45.0)
  end
:hierarchy
  begin
    root lhipjoint rhipjoint lowerback
    lhipjoint lfemur
    lfemur ltibia
    ltibia lfoot
    lfoot ltoes
    rhipjoint rfemur
    rfemur rtibia
    rtibia rfoot
    rfoot rtoes
    lowerback upperback
    upperback thorax
    thorax lowerneck lclavicle rclavicle
    lowerneck upperneck
    upperneck head
    lclavicle lhumerus
    lhumerus lradius
    lradius lwrist
    lwrist lhand lthumb
    lhand lfingers
    rclavicle rhumerus
    rhumerus rradius
    rradius rwrist
    rwrist rhand rthumb
    rhand rfingers
  end

#!OML:ASF E:\I on waltz\AllaLogoMonkeySwing\Project 1\Capture day 1\Session 1\Subject1.ASF
:FULLY-SPECIFIED
:DEGREES
1
root 0.170176 17.6022 -22.3599 1.64921 -0.646335 -0.674056
lowerback 5.81247 -1.18125 -1.84614
upperback -1.42505 -1.63189 1.88465
thorax -4.63239 -0.730276 3.15091
lowerneck -6.59201 -8.34164 -10.6647
upperneck 11.429 -10.5157 3.66039
head 5.28768 -5.39247 2.09372
rclavicle 1.17407e-014 -1.51076e-014
rhumerus -30.7141 -18.6476 -79.451
rradius 16.1004
rwrist 16.3942
rhand -6.39407 -35.2342
rfingers 7.12502
rthumb 19.4535 -64.281
lclavicle 1.17407e-014 -1.51076e-014
lhumerus -44.6384 17.7169 85.2782
lradius 38.7471
lwrist -5.1843
lhand 4.03646 -10.3119
lfingers 7.12502
lthumb 29.4505 17.3735
rfemur -9.83514 -1.47356 22.2397
rtibia 31.4177
rfoot -22.8062 -6.88938
rtoes 23.4831
lfemur -8.31762 2.68866 -20.2303
ltibia 28.5598
lfoot -22.9044 1.39987
ltoes -22.914
2
root 0.173957 17.6014 -22.3598 1.6964 -0.727758 -0.519371
lowerback 5.80898 -1.2311 -2.01313
upperback -1.41836 -1.712 1.8664
thorax -4.61402 -0.766028 3.23327
lowerneck -6.82818 -8.25457 -10.4651
upperneck 11.7327 -10.3576 3.32914
head 5.38275 -5.32782 1.9605
rclavicle 1.41013e-014 -3.22031e-014
rhumerus -30.5137 -18.2741 -79.7288
rradius 16.5218
rwrist 15.6223
rhand -6.02358 -35.375
rfingers 7.12502
rthumb 19.8097 -64.3855
lclavicle 1.41013e-014 -3.22031e-014
lhumerus -44.7239 18.2716 84.9974
lradius 38.6167
lwrist -5.39228
lhand 1.60354 -10.9978
lfingers 7.12502
lthumb 27.1254 17.0731
rfemur -9.94349 -1.40291 22.0637
rtibia 31.5037
rfoot -22.8123 -6.9577
rtoes 23.2579
lfemur -8.32286 2.69864 -20.4259
ltibia 28.476
lfoot -22.3812 1.79262
ltoes -26.6532
3
root 0.179604 17.6026 -22.3582 1.7503 -0.880507 -0.431972
lowerback 5.79419 -1.25893 -2.08835
upperback -1.43815 -1.75456 1.86888
thorax -4.62113 -0.784675 3.28221
lowerneck -6.765 -8.19126 -10.501
upperneck 11.7312 -10.2684 3.28231
head 5.3652 -5.2896 1.9621
rclavicle -2.5345e-014 1.59028e-014
rhumerus -30.3606 -17.9185 -79.962
rradius 16.9872
rwrist 14.9284
rhand -5.79713 -35.1677
rfingers 7.12502
rthumb 20.0274 -64.1555
lclavicle -2.5345e-014 1.59028e-014
lhumerus -44.8827 18.9063 84.665
lradius 38.4515
lwrist -5.34509
lhand -0.781454 -11.5464
lfingers 7.12502
lthumb 24.8417 16.8598
rfemur -10.038 -1.38038 21.9481
rtibia 31.5465
rfoot -22.8278 -6.82577
rtoes 23.0554
lfemur -8.33842 2.73737 -20.5554
ltibia 28.4355
lfoot -21.3715 2.47201
ltoes -32.1204
4
root 0.187165 17.603 -22.3567 1.76276 -1.1034 -0.436132
lowerback 5.82337 -1.27516 -2.05315
upperback -1.47978 -1.77283 1.89234
thorax -4.68012 -0.792836 3.29046
lowerneck -6.60005 -8.12071 -10.5801
upperneck 11.7866 -10.1821 3.27125
head 5.35283 -5.25474 1.98406
rclavicle -8.38002e-015 6.75868e-015
rhumerus -30.2504 -17.5123 -80.2075
rradius 17.3989
rwrist 14.0717
rhand -5.94998 -34.9897
rfingers 7.12502
rthumb 19.8804 -63.9929
lclavicle -8.38002e-015 6.75868e-015
lhumerus -45.0988 19.49 84.3307
lradius 38.287
lwrist -4.97163
lhand -3.01449 -12.0456
lfingers 7.12502
lthumb 22.7001 16.6392
rfemur -10.0634 -1.40477 21.9115
rtibia 31.5629
rfoot -22.8083 -6.66122
rtoes 22.9053
lfemur -8.30661 2.78129 -20.5949
ltibia 28.4219
lfoot -22.6938 1.89118
ltoes -24.107
5
root 0.192686 17.6017 -22.3556 1.76938 -1.30642 -0.536652
lowerback 5.85984 -1.29976 -1.95685
upperback -1.5088 -1.79651 1.94069
thorax -4.73072 -0.805387 3.2907
lowerneck -6.42346 -8.02466 -10.6099
upperneck 11.7947 -10.0735 3.30445
head 5.32149 -5.20371 2.01557
rclavicle -1.22998e-014 -1.98785e-015
rhumerus -30.1061 -16.8861 -80.581
rradius 17.7523
rwrist 13.0762
rhand -6.26819 -34.9596
rfingers 7.12502
rthumb 19.5745 -63.9942
lclavicle -1.22998e-014 -1.98785e-015
lhumerus -45.2649 19.9708 84.0411
lradius 38.1596
lwrist -4.29675
lhand -5.02228 -12.4516
lfingers 7.12502
lthumb 20.772 16.4566
rfemur -10.0582 -1.40408 21.9984
rtibia 31.5558
rfoot -22.7279 -6.64081
rtoes 22.7742
lfemur -8.27593 2.81309 -20.5133
ltibia 28.4205
lfoot -21.3562 2.75931
ltoes -31.9455
6
root 0.195843 17.6017 -22.3534 1.80089 -1.49108 -0.61056
lowerback 5.83512 -1.3326 -1.90505
upperback -1.49345 -1.83502 1.96627
thorax -4.69871 -0.826388 3.29057
lowerneck -6.39165 -7.89947 -10.5059
upperneck 11.784 -9.91756 3.29026
head 5.29551 -5.12444 2.01084
rclavicle -2.44754e-014 1.59028e-014
rhumerus -29.9186 -16.0664 -81.0976
rradius 18.1919
rwrist 12.0731
rhand -6.35165 -34.9769
rfingers 7.12502
rthumb 19.4943 -64.0196
lclavicle -2.44754e-014 1.59028e-014
lhumerus -45.2878 20.4539 83.7138
lradius 37.9942
lwrist -3.54369
lhand -6.34293 -12.7542
lfingers 7.12502
lthumb 19.5027 16.2877
rfemur -10.0822 -1.36262 22.067
rtibia 31.5447
rfoot -22.6677 -6.63346
rtoes 22.4153
lfemur -8.27725 2.91612 -20.4396
ltibia 28.4218
lfoot -22.3843 2.29838
ltoes -26.7634
7
root 0.199593 17.6043 -22.3507 1.88295 -1.67025 -0.615109
lowerback 5.7703 -1.36852 -1.90572
upperback -1.47611 -1.88184 1.97994
thorax -4.64013 -0.850696 3.3069
lowerneck -6.54652 -7.76616 -10.3672
upperneck 11.8783 -9.72118 3.16697
head 5.32401 -5.02959 1.96127
rclavicle 9.14409e-015 0
rhumerus -29.7008 -15.2329 -81.6159
rradius 18.678
rwrist 10.9976
rhand -6.23061 -35.0228
rfingers 7.12502
rthumb 19.6107 -64.0537
lclavicle 9.14409e-015 0
lhumerus -45.279 20.9206 83.3983
lradius 37.8814
lwrist -3.03401
lhand -7.01903 -12.9449
lfingers 7.12502
lthumb 18.8525 16.1615
rfemur -10.1831 -1.27367 22.0485
rtibia 31.5414
rfoot -22.6672 -6.54792
rtoes 22.3497
lfemur -8.33622 3.01421 -20.4508
ltibia 28.4235
lfoot -22.7627 2.22016
ltoes -24.9371
8
root 0.20349 17.605 -22.3492 2.00101 -1.83844 -0.562217
lowerback 5.67844 -1.3874 -1.97722
upperback -1.47666 -1.91046 2.00252
thorax -4.58372 -0.86366 3.37018
lowerneck -6.76271 -7.67716 -10.31
upperneck 12.0302 -9.57016 3.04786
head 5.38893 -4.96033 1.91792
rclavicle 1.67352e-014 -5.1684e-015
rhumerus -29.4374 -14.4751 -82.058
rradius 19.0272
rwrist 10.0542
rhand -6.34052 -35.001
rfingers 7.12502
rthumb 19.505 -64.0426
lclavicle 1.67352e-014 -5.1684e-015
lhumerus -45.3208 21.2942 83.1325
lradius 37.8593
lwrist -2.77701
lhand -7.04128 -13.1378
lfingers 7.12502
lthumb 18.8311 15.9706
rfemur -10.3257 -1.16171 21.9773
rtibia 31.5468
rfoot -22.6925 -6.43993
rtoes 22.2956
lfemur -8.44124 3.05672 -20.5349
ltibia 28.4192
lfoot -22.7874 2.28815
ltoes -24.6557
9
root 0.206391 17.6029 -22.3479 2.06212 -2.00049 -0.5051
lowerback 5.63502 -1.38839 -2.07569
upperback -1.4716 -1.9175 2.02892
thorax -4.54945 -0.864779 3.45221
lowerneck -6.90662 -7.63377 -10.3086
upperneck 12.1167 -9.48813 2.98188
head 5.43156 -4.92394 1.89743
rclavicle -1.34055e-014 -1.19271e-015
rhumerus -29.2334 -13.8795 -82.4066
rradius 19.3246
rwrist 9.44452
rhand -6.56088 -34.8829
rfingers 7.12502
rthumb 19.2931 -63.9459
lclavicle -1.34055e-014 -1.19271e-015
lhumerus -45.3803 21.5579 82.9027
lradius 37.8577
lwrist -2.69691
lhand -6.6059 -13.151
lfingers 7.12502
lthumb 19.2498 15.9163
rfemur -10.397 -1.09368 21.9106
rtibia 31.556
rfoot -22.6605 -6.39393
rtoes 21.7782
lfemur -8.49379 3.15225 -20.6081
ltibia 28.4148
lfoot -22.8216 2.24583
ltoes -24.0735
10
root 0.209243 17.6023 -22.3451 2.05767 -2.15707 -0.55672
lowerback 5.62482 -1.38138 -2.03357
upperback -1.4375 -1.90328 2.06909
thorax -4.50916 -0.859507 3.46784
lowerneck -6.89879 -7.59967 -10.3808
upperneck 12.073 -9.43569 3.00015
head 5.41763 -4.8998 1.91962
rclavicle -1.16786e-015 1.86858e-014
rhumerus -29.0734 -13.5176 -82.6612
rradius 19.6242
rwrist 8.99482
rhand -6.62375 -34.595
rfingers 7.12502
rthumb 19.2326 -63.664
lclavicle -1.16786e-015 1.86858e-014
lhumerus -45.4106 21.6453 82.7812
lradius 37.9007
lwrist -2.67738
lhand -6.20593 -12.8961
lfingers 7.12502
lthumb 19.6344 16.1324
rfemur -10.3888 -1.04329 21.9569
rtibia 31.557
rfoot -22.6248 -6.45736
rtoes 21.2022
lfemur -8.46822 3.24037 -20.5559
ltibia 28.4264
lfoot -22.8654 2.26031
ltoes -24.008
11
root 0.21196 17.603 -22.3419 2.06707 -2.3096 -0.647127
lowerback 5.58712 -1.37611 -1.92599
upperback -1.40777 -1.88654 2.10368
thorax -4.46021 -0.854936 3.43963
lowerneck -6.76541 -7.55992 -10.5164
upperneck 11.9675 -9.39353 3.11043
head 5.37136 -4.87832 1.98484
rclavicle -2.80162e-014 -4.77083e-015
rhumerus -28.8918 -13.2998 -82.8724
rradius 19.8586
rwrist 8.62463
rhand -6.52052 -34.4816
rfingers 7.12502
rthumb 19.3319 -63.5407
lclavicle -2.80162e-014 -4.77083e-015
lhumerus -45.4321 21.6488 82.6681
lradius 37.9245
lwrist -2.73158
lhand -5.79111 -12.7265
lfingers 7.12502
lthumb 20.0331 16.2608
rfemur -10.3974 -0.973151 22.0426
rtibia 31.5515
rfoot -22.6885 -6.46984
rtoes 21.0529
lfemur -8.44956 3.265 -20.4777
ltibia 28.4485
lfoot -22.8936 2.40414
ltoes -24.574
12
root 0.212952 17.6038 -22.3396 2.11666 -2.43003 -0.669468
lowerback 5.58355 -1.37167 -1.91144
upperback -1.44068 -1.87906 2.11055
thorax -4.49326 -0.850552 3.43863
lowerneck -6.62634 -7.50958 -10.5896
upperneck 11.8927 -9.34489 3.21227
head 5.32962 -4.85218 2.03825
rclavicle -2.63762e-014 1.86858e-014
rhumerus -28.8 -13.115 -83.0704
rradius 20.1209
rwrist 8.27982
rhand -6.27755 -34.8043
rfingers 7.12502
rthumb 19.5655 -63.8398
lclavicle -2.63762e-014 1.86858e-014
lhumerus -45.4968 21.6994 82.4288
lradius 37.8379
lwrist -3.02265
lhand -5.33726 -12.7332
lfingers 7.12502
lthumb 20.4693 16.2078
rfemur -10.4594 -0.892727 22.0626
rtibia 31.551
rfoot -22.7488 -6.40041
rtoes 21.4617
lfemur -8.48977 3.28876 -20.4755
ltibia 28.463
lfoot -22.8823 2.52656
ltoes -24.7479
13
root 0.21344 17.6043 -22.3375 2.17152 -2.53538 -0.632929
lowerback 5.5549 -1.35644 -1.96328
upperback -1.45971 -1.8631 2.08844
thorax -4.49716 -0.841224 3.44288
lowerneck -6.62593 -7.44114 -10.5311
upperneck 11.8758 -9.26107 3.22891
head 5.31613 -4.80755 2.04217
rclavicle -1.92573e-015 -2.38542e-015
rhumerus -28.7689 -12.9174 -83.3049
rradius 20.4105
rwrist 7.94749
rhand -6.10133 -35.0397
rfingers 7.12502
rthumb 19.7349 -64.0579
lclavicle -1.92573e-015 -2.38542e-015
lhumerus -45.4911 21.7522 82.1582
lradius 37.6841
lwrist -3.36317
lhand -4.91151 -12.7628
lfingers 7.12502
lthumb 20.8784 16.1337
rfemur -10.5322 -0.808943 22.0209
rtibia 31.5633
rfoot -22.6961 -6.37522
rtoes 21.5829
lfemur -8.53954 3.33272 -20.5299
ltibia 28.4635
lfoot -22.5024 2.73046
ltoes -26.1828
14
root 0.215603 17.6047 -22.3359 2.20997 -2.6129 -0.60171
lowerback 5.54544 -1.36027 -1.99945
upperback -1.46049 -1.87179 2.06451
thorax -4.49165 -0.844976 3.43881
lowerneck -6.77644 -7.35881 -10.3596
upperneck 11.9528 -9.14077 3.12717
head 5.34394 -4.74704 1.98825
rclavicle -2.00027e-015 1.15295e-014
rhumerus -28.7623 -12.7409 -83.555
rradius 20.6147
rwrist 7.79016
rhand -6.11128 -34.9411
rfingers 7.12502
rthumb 19.7254 -63.9602
lclavicle -2.00027e-015 1.15295e-014
lhumerus -45.4409 21.7637 81.9355
lradius 37.5673
lwrist -3.51607
lhand -4.65272 -12.829
lfingers 7.12502
lthumb 21.1271 16.0399
rfemur -10.5938 -0.784533 21.976
rtibia 31.588
rfoot -22.6361 -6.34091
rtoes 21.3597
lfemur -8.56595 3.37243 -20.5753
ltibia 28.4548
lfoot -21.4696 3.2179
ltoes -31.3779
